<svg width="133" height="133" viewBox="0 0 133 133" fill="none" xmlns="http://www.w3.org/2000/svg">
<rect width="133" height="133" rx="6.65" fill="#22C55E"/>
<path d="M48.5654 117V105.8H53.3174C53.9787 105.8 54.576 105.96 55.1094 106.28C55.6534 106.589 56.08 107.016 56.3894 107.56C56.7094 108.104 56.8694 108.717 56.8694 109.4C56.8694 110.093 56.7094 110.717 56.3894 111.272C56.08 111.827 55.6534 112.269 55.1094 112.6C54.576 112.92 53.9787 113.08 53.3174 113.08H50.9654V117H48.5654ZM50.9334 110.92H53.0454C53.3014 110.92 53.5307 110.856 53.7334 110.728C53.936 110.589 54.096 110.408 54.2134 110.184C54.3414 109.96 54.4054 109.704 54.4054 109.416C54.4054 109.128 54.3414 108.877 54.2134 108.664C54.096 108.44 53.936 108.269 53.7334 108.152C53.5307 108.024 53.3014 107.96 53.0454 107.96H50.9334V110.92ZM58.8905 117V108.536H61.1625V117H58.8905ZM60.0105 106.792C59.5732 106.792 59.2318 106.685 58.9865 106.472C58.7412 106.259 58.6185 105.955 58.6185 105.56C58.6185 105.197 58.7412 104.904 58.9865 104.68C59.2425 104.445 59.5838 104.328 60.0105 104.328C60.4478 104.328 60.7892 104.44 61.0345 104.664C61.2798 104.877 61.4025 105.176 61.4025 105.56C61.4025 105.933 61.2745 106.232 61.0185 106.456C60.7732 106.68 60.4372 106.792 60.0105 106.792ZM63.6051 117V105.16H65.8771V117H63.6051ZM68.3749 117V108.536H70.6469V117H68.3749ZM69.4949 106.792C69.0575 106.792 68.7162 106.685 68.4709 106.472C68.2255 106.259 68.1029 105.955 68.1029 105.56C68.1029 105.197 68.2255 104.904 68.4709 104.68C68.7269 104.445 69.0682 104.328 69.4949 104.328C69.9322 104.328 70.2735 104.44 70.5189 104.664C70.7642 104.877 70.8869 105.176 70.8869 105.56C70.8869 105.933 70.7589 106.232 70.5029 106.456C70.2575 106.68 69.9215 106.792 69.4949 106.792ZM73.0735 117V105.16H75.3135V110.264L74.8655 110.456C74.9828 110.072 75.1908 109.725 75.4895 109.416C75.7988 109.096 76.1668 108.84 76.5935 108.648C77.0202 108.456 77.4682 108.36 77.9375 108.36C78.5775 108.36 79.1108 108.488 79.5375 108.744C79.9748 109 80.3002 109.389 80.5135 109.912C80.7375 110.424 80.8495 111.059 80.8495 111.816V117H78.5775V111.992C78.5775 111.608 78.5242 111.288 78.4175 111.032C78.3108 110.776 78.1455 110.589 77.9215 110.472C77.7082 110.344 77.4415 110.291 77.1215 110.312C76.8655 110.312 76.6255 110.355 76.4015 110.44C76.1882 110.515 76.0015 110.627 75.8415 110.776C75.6922 110.925 75.5695 111.096 75.4735 111.288C75.3882 111.48 75.3455 111.688 75.3455 111.912V117H74.2255C73.9802 117 73.7615 117 73.5695 117C73.3775 117 73.2122 117 73.0735 117Z" fill="#F3F4F6"/>
<path d="M67 29C47.1184 29 31 42.095 31 58.25C31 65.2194 34.0108 71.6108 39.0184 76.6353C37.2522 83.7102 31.3797 90.027 31.3094 90.1016C31.158 90.261 31.0566 90.4614 31.0179 90.6779C30.9792 90.8944 31.0049 91.1175 31.0917 91.3195C31.1785 91.5216 31.3227 91.6937 31.5063 91.8147C31.69 91.9356 31.9051 92.0001 32.125 92C41.4428 92 48.4361 87.5352 51.8969 84.7747C56.4939 86.5058 61.5986 87.5 67 87.5C86.8816 87.5 103 74.405 103 58.25C103 42.095 86.8816 29 67 29ZM70.375 71.5306V74C70.375 75.2431 69.3681 76.25 68.125 76.25H65.875C64.6319 76.25 63.625 75.2431 63.625 74V71.5067C62.0191 71.3169 60.4919 70.7769 59.1559 69.8952C58.2812 69.3172 58.1969 68.0516 58.938 67.3105L61.4017 64.8467C61.9277 64.3208 62.7109 64.2505 63.3859 64.5612C63.8331 64.7666 64.3225 64.8734 64.8288 64.8734H69.4384C70.0938 64.8734 70.6253 64.3419 70.6253 63.6894C70.6253 63.162 70.2709 62.6938 69.7647 62.5489L62.7236 60.538C59.5947 59.645 57.0972 57.0631 56.6894 53.8344C56.1198 49.3245 59.3655 45.477 63.625 44.968V42.5C63.625 41.2569 64.6319 40.25 65.875 40.25H68.125C69.3681 40.25 70.375 41.2569 70.375 42.5V44.9933C71.9809 45.1831 73.5081 45.7231 74.8441 46.6048C75.7188 47.1828 75.8031 48.4484 75.062 49.1895L72.5983 51.6533C72.0723 52.1792 71.2891 52.2495 70.6141 51.9387C70.1613 51.7317 69.6691 51.6252 69.1712 51.6266H64.5616C63.9062 51.6266 63.3747 52.1581 63.3747 52.8106C63.3747 53.338 63.7291 53.8062 64.2353 53.9511L71.2764 55.962C74.4053 56.8564 76.9028 59.4369 77.3106 62.6656C77.8802 67.1741 74.6345 71.0216 70.375 71.5306Z" fill="#F3F4F6"/>
</svg>
