<svg width="133" height="133" viewBox="0 0 133 133" fill="none" xmlns="http://www.w3.org/2000/svg">
<rect width="133" height="133" rx="6.65" fill="#22C55E"/>
<path d="M50.5654 117V105.8H55.3174C55.9787 105.8 56.576 105.96 57.1094 106.28C57.6534 106.589 58.08 107.016 58.3894 107.56C58.7094 108.104 58.8694 108.717 58.8694 109.4C58.8694 110.093 58.7094 110.717 58.3894 111.272C58.08 111.827 57.6534 112.269 57.1094 112.6C56.576 112.92 55.9787 113.08 55.3174 113.08H52.9654V117H50.5654ZM52.9334 110.92H55.0454C55.3014 110.92 55.5307 110.856 55.7334 110.728C55.936 110.589 56.096 110.408 56.2134 110.184C56.3414 109.96 56.4054 109.704 56.4054 109.416C56.4054 109.128 56.3414 108.877 56.2134 108.664C56.096 108.44 55.936 108.269 55.7334 108.152C55.5307 108.024 55.3014 107.96 55.0454 107.96H52.9334V110.92ZM60.8905 117V108.536H63.1625V117H60.8905ZM62.0105 106.792C61.5732 106.792 61.2318 106.685 60.9865 106.472C60.7412 106.259 60.6185 105.955 60.6185 105.56C60.6185 105.197 60.7412 104.904 60.9865 104.68C61.2425 104.445 61.5838 104.328 62.0105 104.328C62.4478 104.328 62.7892 104.44 63.0345 104.664C63.2798 104.877 63.4025 105.176 63.4025 105.56C63.4025 105.933 63.2745 106.232 63.0185 106.456C62.7732 106.68 62.4372 106.792 62.0105 106.792ZM65.6051 117V105.16H67.8771V117H65.6051ZM70.3749 117V108.536H72.6469V117H70.3749ZM71.4949 106.792C71.0575 106.792 70.7162 106.685 70.4709 106.472C70.2255 106.259 70.1029 105.955 70.1029 105.56C70.1029 105.197 70.2255 104.904 70.4709 104.68C70.7269 104.445 71.0682 104.328 71.4949 104.328C71.9322 104.328 72.2735 104.44 72.5189 104.664C72.7642 104.877 72.8869 105.176 72.8869 105.56C72.8869 105.933 72.7589 106.232 72.5029 106.456C72.2575 106.68 71.9215 106.792 71.4949 106.792ZM75.0735 117V105.16H77.3135V110.264L76.8655 110.456C76.9828 110.072 77.1908 109.725 77.4895 109.416C77.7988 109.096 78.1668 108.84 78.5935 108.648C79.0202 108.456 79.4682 108.36 79.9375 108.36C80.5775 108.36 81.1108 108.488 81.5375 108.744C81.9748 109 82.3002 109.389 82.5135 109.912C82.7375 110.424 82.8495 111.059 82.8495 111.816V117H80.5775V111.992C80.5775 111.608 80.5242 111.288 80.4175 111.032C80.3108 110.776 80.1455 110.589 79.9215 110.472C79.7082 110.344 79.4415 110.291 79.1215 110.312C78.8655 110.312 78.6255 110.355 78.4015 110.44C78.1882 110.515 78.0015 110.627 77.8415 110.776C77.6922 110.925 77.5695 111.096 77.4735 111.288C77.3882 111.48 77.3455 111.688 77.3455 111.912V117H76.2255C75.9802 117 75.7615 117 75.5695 117C75.3775 117 75.2122 117 75.0735 117Z" fill="#F3F4F6"/>
<path d="M75.625 72.3438C75.625 73.6041 74.6041 74.625 73.3438 74.625H59.6562C58.3959 74.625 57.375 73.6041 57.375 72.3438V65.5H30V86.0312C30 89.6813 33.1937 92.875 36.8438 92.875H96.1562C99.8063 92.875 103 89.6813 103 86.0312V65.5H75.625V72.3438ZM96.1562 42.6875H84.75V35.8438C84.75 32.1937 81.5563 29 77.9062 29H55.0938C51.4438 29 48.25 32.1937 48.25 35.8438V42.6875H36.8438C33.1937 42.6875 30 45.8813 30 49.5312V60.9375H103V49.5312C103 45.8813 99.8063 42.6875 96.1562 42.6875ZM75.625 42.6875H57.375V38.125H75.625V42.6875Z" fill="#F3F4F6"/>
</svg>
